<svg width="256" height="256" viewBox="0 0 256 256" fill="none" xmlns="http://www.w3.org/2000/svg">
  <rect width="256" height="256" rx="56" fill="#07111F"/>
  <rect x="26" y="26" width="204" height="204" rx="40" fill="url(#grad)"/>
  <path d="M78 176V86C78 79.3726 83.3726 74 90 74H120C140.987 74 158 91.0132 158 112V112C158 132.987 140.987 150 120 150H110V176H78Z" fill="white"/>
  <path d="M110 150H126C142.569 150 156 163.431 156 180V180C156 183.114 153.114 186 150 186H110V150Z" fill="#7DD3FC"/>
  <path d="M168 84L198 176" stroke="#F8FAFC" stroke-width="18" stroke-linecap="round"/>
  <circle cx="198" cy="176" r="14" fill="#38BDF8"/>
  <defs>
    <linearGradient id="grad" x1="40" y1="34" x2="224" y2="222" gradientUnits="userSpaceOnUse">
      <stop stop-color="#2563EB"/>
      <stop offset="1" stop-color="#38BDF8"/>
    </linearGradient>
  </defs>
</svg>
